Coordinates
version=1
nRows=18
nColumns=63
inDegrees=yes

Units are S.I. units (second, meters, Newtons, ...)
If the header above contains a line with 'inDegrees', this indicates whether rotational values are in degrees (yes) or radians (no).

endheader
time	pelvis_tilt	pelvis_list	pelvis_rotation	pelvis_tx	pelvis_ty	pelvis_tz	hip_flexion_r	hip_adduction_r	hip_rotation_r	knee_angle_r	knee_angle_r_beta	ankle_angle_r	subtalar_angle_r	mtp_angle_r	hip_flexion_l	hip_adduction_l	hip_rotation_l	knee_angle_l	knee_angle_l_beta	ankle_angle_l	subtalar_angle_l	mtp_angle_l	L5_S1_Flex_Ext	L5_S1_Lat_Bending	L5_S1_axial_rotation	L4_L5_Flex_Ext	L4_L5_Lat_Bending	L4_L5_axial_rotation	L3_L4_Flex_Ext	L3_L4_Lat_Bending	L3_L4_axial_rotation	L2_L3_Flex_Ext	L2_L3_Lat_Bending	L2_L3_axial_rotation	L1_L2_Flex_Ext	L1_L2_Lat_Bending	L1_L2_axial_rotation	L1_T12_Flex_Ext	L1_T12_Lat_Bending	L1_T12_axial_rotation	Abs_r3	Abs_r2	Abs_r1	Abs_t1	Abs_t2	neck_flexion	neck_bending	neck_rotation	arm_flex_r	arm_add_r	arm_rot_r	elbow_flex_r	pro_sup_r	wrist_flex_r	wrist_dev_r	arm_flex_l	arm_add_l	arm_rot_l	elbow_flex_l	pro_sup_l	wrist_flex_l	wrist_dev_l
3.400000	-0.865950	-6.741338	84.571531	0.299770	0.899221	0.516122	-0.819824	-1.513810	-2.350562	7.260531	0.126720	30.340324	10.048041	0.000000	0.476113	-2.205003	-17.810669	9.087942	0.158615	35.931803	13.770907	0.000000	0.222153	-0.012682	0.778861	0.412561	-0.016867	0.827539	0.364976	-0.030836	0.827539	0.253899	-0.030836	0.681503	0.206292	-0.025862	0.632824	0.126938	-0.019645	0.584145	1.586819	-0.143465	4.331789	0.000000	0.000000	28.313362	3.847307	7.288018	21.625186	-33.288920	84.935285	11.604119	42.720575	-8.568239	-0.842039	24.179165	-32.148812	95.063275	8.370995	32.156990	-2.702171	2.086366
3.416667	-0.931809	-6.899997	84.344928	0.300122	0.898562	0.516153	-0.652223	-1.539584	-1.460549	7.194923	0.125575	30.345245	9.392860	0.000000	0.853592	-2.249883	-18.490241	9.657595	0.168557	36.437040	14.141148	0.000000	0.246143	-0.015944	0.754985	0.457113	-0.021206	0.802172	0.404389	-0.038767	0.802172	0.281317	-0.038767	0.660612	0.228569	-0.032514	0.613425	0.140646	-0.024698	0.566239	1.758176	-0.180366	4.199001	0.000000	0.000000	28.326906	4.018912	7.559819	23.017994	-33.044464	97.752672	8.662815	34.589398	-7.625325	-1.770413	23.522721	-32.593031	88.657399	7.451649	36.281769	-2.862636	2.233908
3.433333	-0.989931	-7.061489	84.079822	0.300493	0.897979	0.516392	-0.437793	-1.562050	-0.609052	7.183841	0.125382	30.343505	8.823166	0.000000	1.196172	-2.286515	-19.090886	10.116223	0.176561	36.875641	14.390798	0.000000	0.266462	-0.017613	0.745219	0.494847	-0.023425	0.791795	0.437771	-0.042824	0.791795	0.304540	-0.042824	0.652066	0.247437	-0.035917	0.605490	0.152257	-0.027283	0.558914	1.903313	-0.199243	4.144683	0.000000	0.000000	28.338952	4.109525	7.753928	24.247905	-32.677549	109.669473	6.078666	26.581929	-6.698200	-2.359421	22.686300	-33.074272	80.704636	6.906074	42.513822	-3.258538	2.697335
3.450000	-1.034618	-7.223566	83.784507	0.300861	0.897453	0.516785	-0.185613	-1.577252	0.168171	7.227142	0.126137	30.336725	8.357927	0.000000	1.497484	-2.318555	-19.582923	10.462022	0.182597	37.256440	14.487844	0.000000	0.284082	-0.017082	0.749465	0.527569	-0.022719	0.796306	0.466718	-0.041533	0.796306	0.324677	-0.041533	0.655782	0.263799	-0.034833	0.608940	0.162325	-0.026460	0.562099	2.029170	-0.193233	4.168299	0.000000	0.000000	28.349346	4.098487	7.836196	25.289742	-32.223897	119.966827	3.949814	19.109822	-5.880522	-2.630690	21.690078	-33.534290	70.939025	6.679756	50.518648	-3.812491	3.475290
3.466667	-1.063385	-7.386439	83.464687	0.301213	0.896954	0.517269	0.093900	-1.583891	0.851697	7.316161	0.127691	30.338533	8.014959	0.000000	1.752971	-2.348347	-19.954004	10.697033	0.186698	37.572653	14.430752	0.000000	0.300661	-0.014291	0.765800	0.558358	-0.019007	0.813662	0.493956	-0.034748	0.813662	0.343626	-0.034748	0.670075	0.279194	-0.029143	0.622212	0.171798	-0.022137	0.574350	2.147592	-0.161666	4.259149	0.000000	0.000000	28.358206	3.993818	7.814183	26.139887	-31.723196	128.184313	2.326369	12.547670	-5.220064	-2.575410	20.565891	-33.931600	59.221096	6.695041	60.056007	-4.404756	4.567158
3.483333	-1.081485	-7.542038	83.128671	0.301558	0.896470	0.517800	0.383271	-1.587779	1.421488	7.440493	0.129861	30.368820	7.815229	0.000000	1.968232	-2.381177	-20.337095	10.866283	0.189652	37.853759	14.393117	0.000000	0.316317	-0.010575	0.794778	0.587431	-0.014065	0.844452	0.519676	-0.025713	0.844452	0.361518	-0.025713	0.695431	0.293732	-0.021565	0.645757	0.180743	-0.016381	0.596084	2.259418	-0.119629	4.420319	0.000000	0.000000	28.366256	3.811257	7.704793	26.796283	-31.229692	134.131453	1.203753	7.115486	-4.782490	-2.196570	19.541814	-34.276361	46.657628	6.723398	70.055446	-5.102488	5.729843
3.500000	-1.067766	-7.696291	82.769009	0.301859	0.896009	0.518327	0.680996	-1.568207	1.886445	7.591122	0.132490	30.424480	7.756388	0.000000	2.145471	-2.436291	-20.683861	10.979379	0.191626	38.079190	14.299270	0.000000	0.332509	-0.002408	0.836141	0.617503	-0.003203	0.888400	0.546279	-0.005856	0.888400	0.380025	-0.005856	0.731624	0.308768	-0.004911	0.679365	0.189996	-0.003731	0.627106	2.375080	-0.027244	4.650367	0.000000	0.000000	28.374072	3.549255	7.543151	27.303080	-30.819297	137.733195	0.573395	3.079354	-4.597506	-1.550137	18.995758	-34.217752	39.400434	5.969938	75.240082	-5.305664	6.302951
3.516667	-1.048494	-7.853767	82.407035	0.302189	0.895517	0.518783	0.980457	-1.544395	2.231045	7.754382	0.135339	30.528817	7.840988	0.000000	2.301940	-2.496735	-20.968194	11.062132	0.193071	38.252057	14.142044	0.000000	0.350422	0.004621	0.880151	0.650769	0.006146	0.935160	0.575708	0.011235	0.935160	0.400497	0.011235	0.770132	0.325402	0.009423	0.715123	0.200231	0.007158	0.660113	2.503029	0.052271	4.895136	0.000000	0.000000	28.383195	3.265151	7.333964	27.705145	-30.473857	138.911381	0.408137	0.719950	-4.687032	-0.705839	18.606035	-34.089700	33.596571	5.330424	79.257233	-5.513385	6.719455
3.533333	-1.030732	-8.017145	82.068927	0.302523	0.894995	0.519143	1.277918	-1.522180	2.437717	7.922499	0.138274	30.676437	8.053803	0.000000	2.452026	-2.558672	-21.201903	11.131397	0.194280	38.383862	13.965819	0.000000	0.370644	0.009395	0.922534	0.688323	0.012495	0.980192	0.608931	0.022842	0.980192	0.423609	0.022842	0.807217	0.344180	0.019158	0.749559	0.211786	0.014552	0.691900	2.647473	0.106275	5.130855	0.000000	0.000000	28.393688	2.975838	7.085462	27.997111	-30.190076	137.532062	0.688820	0.297236	-5.020852	0.301445	18.406195	-33.899014	29.683753	4.854688	82.038659	-5.814414	6.878525
3.550000	-1.015449	-8.175241	81.758174	0.302894	0.894471	0.519434	1.561656	-1.500495	2.524205	8.089706	0.141192	30.854100	8.381790	0.000000	2.603589	-2.632874	-21.459811	11.227279	0.195953	38.503526	13.867029	0.000000	0.391236	0.011061	0.961425	0.726564	0.014711	1.021514	0.642761	0.026893	1.021514	0.447143	0.026893	0.841247	0.363302	0.022555	0.781158	0.223552	0.017133	0.721069	2.794558	0.125123	5.347157	0.000000	0.000000	28.404673	2.694211	6.794151	28.206577	-29.963355	133.722136	1.341207	1.889531	-5.573751	1.393698	18.375713	-33.635475	26.836199	4.581326	84.148926	-6.215279	6.749881
3.566667	-1.008966	-8.323414	81.479328	0.303298	0.893967	0.519650	1.818452	-1.488539	2.486756	8.237047	0.143764	31.042622	8.841395	0.000000	2.747432	-2.704602	-21.666126	11.326442	0.197684	38.611396	13.775077	0.000000	0.411743	0.009280	1.001411	0.764648	0.012342	1.063999	0.676453	0.022563	1.063999	0.470581	0.022563	0.876235	0.382345	0.018923	0.813646	0.235270	0.014374	0.751058	2.941040	0.104973	5.569548	0.000000	0.000000	28.415706	2.399603	6.452036	28.192411	-29.778193	126.939789	2.420886	5.854497	-6.305204	2.629409	18.612161	-33.420005	26.990632	4.600062	83.798229	-6.685311	6.301431
3.583333	-1.021417	-8.442931	81.266374	0.303754	0.893558	0.519739	2.009671	-1.479171	2.539668	8.335273	0.145478	31.179945	9.088527	0.000000	2.876829	-2.770375	-21.870491	11.454255	0.199914	38.710870	13.772014	0.000000	0.431229	0.001699	1.026559	0.800835	0.002260	1.090719	0.708466	0.004132	1.090719	0.492851	0.004132	0.898239	0.400439	0.003465	0.834079	0.246404	0.002632	0.769919	3.080224	0.019222	5.709412	0.000000	0.000000	28.425269	2.151287	6.090249	28.496228	-29.295671	125.611349	2.432886	5.155753	-6.588722	3.213987	18.921159	-33.333056	28.591101	4.890462	81.969718	-7.263462	5.580729
3.600000	-1.038504	-8.524267	81.103307	0.304220	0.893222	0.519688	2.121394	-1.465881	2.695175	8.376776	0.146202	31.255754	9.139979	0.000000	2.973178	-2.835583	-22.050341	11.593432	0.202344	38.822982	13.828248	0.000000	0.448360	-0.007129	1.041891	0.832650	-0.009481	1.107009	0.736611	-0.017333	1.107009	0.512431	-0.017333	0.911654	0.416347	-0.014537	0.846536	0.256193	-0.011042	0.781418	3.202591	-0.080641	5.794684	0.000000	0.000000	28.432711	1.948912	5.816671	28.739543	-28.803541	124.189285	2.460727	4.405265	-6.834437	3.641500	19.437852	-33.407262	33.930550	5.472558	76.842266	-7.896375	4.688620
3.616667	-1.027851	-8.554585	80.976754	0.304620	0.892975	0.519547	2.162004	-1.430306	2.819319	8.405623	0.146706	31.302410	9.175608	0.000000	3.029452	-2.927667	-22.216377	11.761643	0.205279	38.963186	13.921541	0.000000	0.461230	-0.013511	1.059520	0.856550	-0.017970	1.125740	0.757755	-0.032852	1.125740	0.527140	-0.032852	0.927080	0.428298	-0.027553	0.860860	0.263547	-0.020929	0.794640	3.294519	-0.152844	5.892732	0.000000	0.000000	28.437482	1.712264	5.482259	28.889690	-28.361143	122.720987	2.512880	3.617226	-7.064250	3.939993	19.778136	-33.190851	35.628466	5.737530	75.462354	-8.309812	3.945640
3.633333	-1.009242	-8.538743	80.886776	0.304996	0.892807	0.519287	2.133888	-1.388423	2.913729	8.417204	0.146908	31.324950	9.176392	0.000000	3.046611	-3.026187	-22.363030	11.947926	0.208531	39.118316	14.050631	0.000000	0.470373	-0.019008	1.073955	0.873529	-0.025280	1.141077	0.772775	-0.046216	1.141077	0.537589	-0.046216	0.939710	0.436788	-0.038761	0.872588	0.268771	-0.029443	0.805466	3.359824	-0.215020	5.973015	0.000000	0.000000	28.440064	1.467750	5.160880	28.958925	-27.959922	121.325654	2.569614	2.870619	-7.285402	4.116537	20.212155	-32.959215	38.192300	6.021311	73.552118	-8.718141	3.284501
3.650000	-0.988656	-8.484120	80.799709	0.305392	0.892714	0.518905	2.046667	-1.342833	3.036059	8.404879	0.146693	31.318319	9.101135	0.000000	3.022707	-3.123874	-22.528659	12.139217	0.211869	39.277924	14.218360	0.000000	0.476180	-0.024022	1.088935	0.884314	-0.031950	1.156993	0.782316	-0.058408	1.156993	0.544226	-0.058408	0.952818	0.442181	-0.048986	0.884759	0.272089	-0.037210	0.816701	3.401305	-0.271745	6.056328	0.000000	0.000000	28.441218	1.232235	4.866887	28.960789	-27.600510	120.163936	2.611272	2.310778	-7.520231	4.197956	20.715122	-32.737370	41.640998	6.299445	71.173184	-9.179367	2.747854
3.666667	-0.969815	-8.411930	80.737111	0.305778	0.892682	0.518396	1.915004	-1.294093	3.153434	8.349539	0.145727	31.282225	8.967157	0.000000	2.979654	-3.211546	-22.638832	12.318694	0.215002	39.426669	14.359572	0.000000	0.480537	-0.028512	1.096979	0.892405	-0.037922	1.165540	0.789474	-0.069325	1.165540	0.549206	-0.069325	0.959856	0.446227	-0.058143	0.891295	0.274579	-0.044166	0.822734	3.432428	-0.322538	6.101067	0.000000	0.000000	28.441485	1.046448	4.651520	28.923852	-27.278164	119.416873	2.619238	2.059829	-7.764787	4.198977	21.246282	-32.549834	45.924133	6.545183	68.819965	-9.715090	2.375243
3.683333	-0.957672	-8.330131	80.666919	0.306206	0.892713	0.517767	1.743456	-1.240073	3.442716	8.228734	0.143618	31.177989	8.590692	0.000000	2.914726	-3.291009	-22.806481	12.475073	0.217731	39.575489	14.573710	0.000000	0.483613	-0.032961	1.100722	0.898118	-0.043838	1.169517	0.794528	-0.080141	1.169517	0.552721	-0.080141	0.963131	0.449083	-0.067214	0.894336	0.276337	-0.051056	0.825541	3.454400	-0.372861	6.121883	0.000000	0.000000	28.441331	0.932808	4.529785	28.868567	-26.981772	119.215844	2.577393	2.124485	-7.982717	4.114874	21.809010	-32.402299	51.591374	6.746375	66.774809	-10.210464	2.241827
